<svg width="232" height="34" viewBox="0 0 232 34" fill="none" xmlns="http://www.w3.org/2000/svg">
<path d="M5.38861 23H2.11295C2.03765 23 2 22.9539 2 22.8617L2.05648 3.39639C2.05648 3.32261 2.09413 3.28571 2.16943 3.28571H8.01479C9.05961 3.28571 10.0197 3.53474 10.8951 4.03278C11.7705 4.53083 12.4671 5.1995 12.9848 6.0388C13.5119 6.8781 13.7754 7.82807 13.7754 8.88872C13.7754 9.58045 13.6672 10.2076 13.4507 10.7702C13.2342 11.3328 12.9801 11.8078 12.6883 12.1952C12.4059 12.5826 12.147 12.8685 11.9117 13.0529C12.9565 14.1874 13.4789 15.5201 13.4789 17.0511L13.5072 22.8617C13.5072 22.9539 13.4601 23 13.366 23H10.0903C10.015 23 9.97736 22.9723 9.97736 22.917V17.0511C9.97736 16.3686 9.73263 15.7783 9.24317 15.2803C8.7537 14.7823 8.15128 14.5332 7.4359 14.5332H5.52981L5.50157 22.8617C5.50157 22.9539 5.46392 23 5.38861 23ZM8.01479 6.67519H5.52981V11.1299H8.01479C8.6078 11.1299 9.13492 10.9132 9.59615 10.4797C10.0668 10.0462 10.3021 9.51589 10.3021 8.88872C10.3021 8.28922 10.0762 7.77273 9.62438 7.33925C9.17257 6.89654 8.63604 6.67519 8.01479 6.67519Z" fill="#7F9D01"/>
<path d="M20.0938 23H16.2722C16.1843 23 16.1404 22.9462 16.1404 22.8386L16.2063 0.129123C16.2063 0.0430409 16.2502 0 16.3381 0H23.1577C24.3766 0 25.4967 0.290526 26.518 0.871579C27.5393 1.45263 28.352 2.23275 28.956 3.21193C29.5709 4.19111 29.8784 5.29942 29.8784 6.53684C29.8784 7.34386 29.7521 8.07556 29.4996 8.73193C29.247 9.3883 28.9505 9.94246 28.61 10.3944C28.2806 10.8463 27.9786 11.1799 27.7041 11.3951C28.923 12.7186 29.5325 14.2734 29.5325 16.0596L29.5654 22.8386C29.5654 22.9462 29.5105 23 29.4007 23H25.5791C25.4913 23 25.4473 22.9677 25.4473 22.9032V16.0596C25.4473 15.2634 25.1618 14.5747 24.5908 13.9937C24.0197 13.4126 23.3169 13.1221 22.4823 13.1221H20.2585L20.2256 22.8386C20.2256 22.9462 20.1816 23 20.0938 23ZM23.1577 3.95439H20.2585V9.15158H23.1577C23.8495 9.15158 24.4645 8.89871 25.0026 8.39298C25.5517 7.88725 25.8262 7.26854 25.8262 6.53684C25.8262 5.83743 25.5626 5.23485 25.0355 4.72912C24.5084 4.21263 23.8825 3.95439 23.1577 3.95439Z" fill="#7F9D01"/>
<path d="M35.6132 23H32.3375C32.2622 23 32.2246 22.9539 32.2246 22.8617L32.281 3.39639C32.281 3.32261 32.3187 3.28571 32.394 3.28571H38.2394C39.2842 3.28571 40.2443 3.53474 41.1197 4.03278C41.9951 4.53083 42.6916 5.1995 43.2093 6.0388C43.7364 6.8781 44 7.82807 44 8.88872C44 9.58045 43.8918 10.2076 43.6753 10.7702C43.4588 11.3328 43.2046 11.8078 42.9128 12.1952C42.6304 12.5826 42.3716 12.8685 42.1363 13.0529C43.1811 14.1874 43.7035 15.5201 43.7035 17.0511L43.7317 22.8617C43.7317 22.9539 43.6847 23 43.5905 23H40.3149C40.2396 23 40.2019 22.9723 40.2019 22.917V17.0511C40.2019 16.3686 39.9572 15.7783 39.4677 15.2803C38.9783 14.7823 38.3758 14.5332 37.6605 14.5332H35.7544L35.7261 22.8617C35.7261 22.9539 35.6885 23 35.6132 23ZM38.2394 6.67519H35.7544V11.1299H38.2394C38.8324 11.1299 39.3595 10.9132 39.8207 10.4797C40.2913 10.0462 40.5267 9.51589 40.5267 8.88872C40.5267 8.28922 40.3008 7.77273 39.8489 7.33925C39.3971 6.89654 38.8606 6.67519 38.2394 6.67519Z" fill="#7F9D01"/>
<path d="M49.4932 18.0351V8.30409H52.7749C53.5336 8.30409 54.1564 8.43397 54.6433 8.69371C55.1302 8.95029 55.4906 9.30348 55.7246 9.75329C55.9585 10.2031 56.0755 10.7147 56.0755 11.288C56.0755 11.8614 55.9585 12.3698 55.7246 12.8132C55.4906 13.2567 55.1318 13.6051 54.6481 13.8586C54.1643 14.1088 53.5463 14.2339 52.7938 14.2339H50.1381V13.1696H52.7559C53.2744 13.1696 53.6917 13.0936 54.0079 12.9415C54.3272 12.7895 54.558 12.5741 54.7002 12.2953C54.8457 12.0134 54.9184 11.6776 54.9184 11.288C54.9184 10.8984 54.8457 10.5579 54.7002 10.2664C54.5548 9.97502 54.3224 9.75012 54.0031 9.59174C53.6838 9.43019 53.2617 9.34941 52.7369 9.34941H50.6693V18.0351H49.4932ZM54.0648 13.6637L56.4549 18.0351H55.0891L52.7369 13.6637H54.0648Z" fill="#808080"/>
<path d="M60.8593 18.1871C60.1574 18.1871 59.552 18.0319 59.043 17.7215C58.5371 17.4079 58.1467 16.9708 57.8716 16.4101C57.5997 15.8462 57.4638 15.1905 57.4638 14.443C57.4638 13.6954 57.5997 13.0365 57.8716 12.4664C58.1467 11.893 58.5292 11.4464 59.0193 11.1265C59.5125 10.8034 60.0879 10.6418 60.7455 10.6418C61.1248 10.6418 61.4995 10.7052 61.8694 10.8319C62.2393 10.9586 62.576 11.1645 62.8795 11.4496C63.183 11.7315 63.4248 12.1053 63.605 12.5709C63.7853 13.0365 63.8754 13.6099 63.8754 14.2909V14.7661H58.2605V13.7968H62.7372C62.7372 13.385 62.655 13.0175 62.4906 12.6944C62.3294 12.3713 62.0986 12.1163 61.7982 11.9295C61.5011 11.7426 61.1501 11.6491 60.7455 11.6491C60.2997 11.6491 59.914 11.76 59.5883 11.9817C59.2659 12.2003 59.0177 12.4854 58.8438 12.837C58.6699 13.1886 58.583 13.5655 58.583 13.9678V14.614C58.583 15.1652 58.6778 15.6324 58.8675 16.0157C59.0604 16.3958 59.3275 16.6857 59.669 16.8852C60.0104 17.0816 60.4072 17.1798 60.8593 17.1798C61.1533 17.1798 61.4189 17.1386 61.656 17.0563C61.8962 16.9708 62.1033 16.8441 62.2772 16.6762C62.4511 16.5051 62.5855 16.2929 62.6803 16.0395L63.7615 16.3436C63.6477 16.711 63.4565 17.0341 63.1877 17.3129C62.919 17.5885 62.587 17.8039 62.1918 17.9591C61.7967 18.1111 61.3525 18.1871 60.8593 18.1871Z" fill="#808080"/>
<path d="M68.537 18.1871C67.8541 18.1871 67.2661 18.0256 66.7729 17.7025C66.2797 17.3794 65.9003 16.9343 65.6347 16.3673C65.3692 15.8003 65.2364 15.1525 65.2364 14.424C65.2364 13.6827 65.3723 13.0286 65.6442 12.4616C65.9193 11.8914 66.3018 11.4464 66.7919 11.1265C67.2851 10.8034 67.8605 10.6418 68.5181 10.6418C69.0302 10.6418 69.4918 10.7368 69.9028 10.9269C70.3138 11.117 70.6505 11.383 70.9129 11.7251C71.1753 12.0673 71.3381 12.4664 71.4014 12.9225H70.2822C70.1968 12.5899 70.0071 12.2953 69.7131 12.0387C69.4223 11.779 69.0302 11.6491 68.537 11.6491C68.1007 11.6491 67.7182 11.7632 67.3894 11.9912C67.0638 12.2161 66.8093 12.5345 66.6259 12.9463C66.4457 13.3549 66.3556 13.8348 66.3556 14.386C66.3556 14.9498 66.4441 15.4408 66.6211 15.8589C66.8013 16.277 67.0543 16.6017 67.3799 16.833C67.7087 17.0642 68.0944 17.1798 68.537 17.1798C68.8279 17.1798 69.0919 17.1291 69.329 17.0278C69.5661 16.9264 69.7669 16.7807 69.9313 16.5906C70.0957 16.4006 70.2126 16.1725 70.2822 15.9064H71.4014C71.3381 16.3372 71.1816 16.7253 70.9319 17.0705C70.6853 17.4126 70.3581 17.6851 69.9502 17.8878C69.5455 18.0874 69.0745 18.1871 68.537 18.1871Z" fill="#808080"/>
<path d="M73.0375 18.0351V10.7368H74.1566V18.0351H73.0375ZM73.6065 9.52047C73.3884 9.52047 73.2003 9.44603 73.0422 9.29715C72.8873 9.14827 72.8098 8.9693 72.8098 8.76023C72.8098 8.55117 72.8873 8.3722 73.0422 8.22332C73.2003 8.07444 73.3884 8 73.6065 8C73.8247 8 74.0112 8.07444 74.1661 8.22332C74.3242 8.3722 74.4032 8.55117 74.4032 8.76023C74.4032 8.9693 74.3242 9.14827 74.1661 9.29715C74.0112 9.44603 73.8247 9.52047 73.6065 9.52047Z" fill="#808080"/>
<path d="M79.1657 18.1871C78.4828 18.1871 77.8947 18.0256 77.4015 17.7025C76.9083 17.3794 76.529 16.9343 76.2634 16.3673C75.9978 15.8003 75.865 15.1525 75.865 14.424C75.865 13.6827 76.001 13.0286 76.2729 12.4616C76.5479 11.8914 76.9305 11.4464 77.4205 11.1265C77.9137 10.8034 78.4891 10.6418 79.1467 10.6418C79.6589 10.6418 80.1204 10.7368 80.5314 10.9269C80.9424 11.117 81.2791 11.383 81.5416 11.7251C81.804 12.0673 81.9668 12.4664 82.03 12.9225H80.9108C80.8255 12.5899 80.6358 12.2953 80.3418 12.0387C80.0509 11.779 79.6589 11.6491 79.1657 11.6491C78.7294 11.6491 78.3468 11.7632 78.018 11.9912C77.6924 12.2161 77.4379 12.5345 77.2545 12.9463C77.0743 13.3549 76.9842 13.8348 76.9842 14.386C76.9842 14.9498 77.0727 15.4408 77.2498 15.8589C77.43 16.277 77.6829 16.6017 78.0086 16.833C78.3373 17.0642 78.7231 17.1798 79.1657 17.1798C79.4565 17.1798 79.7205 17.1291 79.9576 17.0278C80.1947 16.9264 80.3955 16.7807 80.5599 16.5906C80.7243 16.4006 80.8413 16.1725 80.9108 15.9064H82.03C81.9668 16.3372 81.8103 16.7253 81.5605 17.0705C81.3139 17.4126 80.9867 17.6851 80.5789 17.8878C80.1742 18.0874 79.7031 18.1871 79.1657 18.1871Z" fill="#808080"/>
<path d="M84.7853 8.30409V18.0351H83.6661V8.30409H84.7853Z" fill="#808080"/>
<path d="M88.9786 18.2061C88.5171 18.2061 88.0982 18.119 87.7219 17.9448C87.3457 17.7674 87.0469 17.5124 86.8256 17.1798C86.6043 16.8441 86.4937 16.4386 86.4937 15.9635C86.4937 15.5453 86.5759 15.2064 86.7403 14.9466C86.9047 14.6837 87.1244 14.4778 87.3995 14.3289C87.6745 14.1801 87.978 14.0692 88.31 13.9963C88.6451 13.9203 88.9818 13.8601 89.3201 13.8158C89.7627 13.7588 90.1215 13.716 90.3966 13.6875C90.6748 13.6558 90.8771 13.6036 91.0036 13.5307C91.1332 13.4578 91.198 13.3311 91.198 13.1506V13.1126C91.198 12.6438 91.07 12.2795 90.8139 12.0197C90.561 11.76 90.1769 11.6301 89.6615 11.6301C89.1272 11.6301 88.7083 11.7473 88.4048 11.9817C88.1013 12.2161 87.8879 12.4664 87.7646 12.7325L86.7023 12.3523C86.892 11.9089 87.145 11.5636 87.4611 11.3165C87.7804 11.0663 88.1282 10.8921 88.5044 10.7939C88.8838 10.6925 89.2569 10.6418 89.6236 10.6418C89.8575 10.6418 90.1263 10.6703 90.4298 10.7273C90.7364 10.7812 91.032 10.8936 91.3166 11.0647C91.6043 11.2357 91.843 11.4939 92.0327 11.8392C92.2224 12.1845 92.3172 12.6469 92.3172 13.2266V18.0351H91.198V17.0468H91.1411C91.0652 17.2052 90.9388 17.3746 90.7617 17.5552C90.5847 17.7357 90.3492 17.8894 90.0551 18.0161C89.7611 18.1428 89.4023 18.2061 88.9786 18.2061ZM89.1494 17.1988C89.592 17.1988 89.965 17.1117 90.2685 16.9375C90.5752 16.7633 90.806 16.5384 90.9609 16.2628C91.119 15.9872 91.198 15.6974 91.198 15.3933V14.367C91.1506 14.424 91.0463 14.4762 90.885 14.5238C90.727 14.5681 90.5436 14.6077 90.3349 14.6425C90.1294 14.6742 89.9287 14.7027 89.7327 14.7281C89.5398 14.7502 89.3833 14.7692 89.2632 14.7851C88.9723 14.8231 88.7004 14.8849 88.4475 14.9704C88.1977 15.0528 87.9954 15.1779 87.8405 15.3458C87.6887 15.5105 87.6129 15.7354 87.6129 16.0205C87.6129 16.4101 87.7567 16.7047 88.0444 16.9042C88.3353 17.1006 88.7036 17.1988 89.1494 17.1988Z" fill="#808080"/>
<path d="M94.3599 10.7368H95.4791V18.5673C95.4791 19.0171 95.4017 19.4067 95.2468 19.7361C95.095 20.0655 94.8642 20.3205 94.5544 20.5011C94.2477 20.6817 93.8604 20.7719 93.3925 20.7719C93.3546 20.7719 93.3166 20.7719 93.2787 20.7719C93.2408 20.7719 93.2028 20.7719 93.1649 20.7719V19.7266C93.2028 19.7266 93.2376 19.7266 93.2692 19.7266C93.3008 19.7266 93.3356 19.7266 93.3736 19.7266C93.715 19.7266 93.9648 19.6252 94.1228 19.4225C94.2809 19.223 94.3599 18.9379 94.3599 18.5673V10.7368ZM94.91 9.52047C94.6919 9.52047 94.5038 9.44603 94.3457 9.29715C94.1908 9.14827 94.1133 8.9693 94.1133 8.76023C94.1133 8.55117 94.1908 8.3722 94.3457 8.22332C94.5038 8.07444 94.6919 8 94.91 8C95.1282 8 95.3147 8.07444 95.4696 8.22332C95.6277 8.3722 95.7068 8.55117 95.7068 8.76023C95.7068 8.9693 95.6277 9.14827 95.4696 9.29715C95.3147 9.44603 95.1282 9.52047 94.91 9.52047Z" fill="#808080"/>
<path d="M100.583 18.1871C99.8811 18.1871 99.2757 18.0319 98.7667 17.7215C98.2609 17.4079 97.8704 16.9708 97.5954 16.4101C97.3235 15.8462 97.1875 15.1905 97.1875 14.443C97.1875 13.6954 97.3235 13.0365 97.5954 12.4664C97.8704 11.893 98.253 11.4464 98.743 11.1265C99.2362 10.8034 99.8116 10.6418 100.469 10.6418C100.849 10.6418 101.223 10.7052 101.593 10.8319C101.963 10.9586 102.3 11.1645 102.603 11.4496C102.907 11.7315 103.149 12.1053 103.329 12.5709C103.509 13.0365 103.599 13.6099 103.599 14.2909V14.7661H97.9842V13.7968H102.461C102.461 13.385 102.379 13.0175 102.214 12.6944C102.053 12.3713 101.822 12.1163 101.522 11.9295C101.225 11.7426 100.874 11.6491 100.469 11.6491C100.023 11.6491 99.6377 11.76 99.3121 11.9817C98.9896 12.2003 98.7414 12.4854 98.5675 12.837C98.3937 13.1886 98.3067 13.5655 98.3067 13.9678V14.614C98.3067 15.1652 98.4016 15.6324 98.5912 16.0157C98.7841 16.3958 99.0513 16.6857 99.3927 16.8852C99.7341 17.0816 100.131 17.1798 100.583 17.1798C100.877 17.1798 101.143 17.1386 101.38 17.0563C101.62 16.9708 101.827 16.8441 102.001 16.6762C102.175 16.5051 102.309 16.2929 102.404 16.0395L103.485 16.3436C103.371 16.711 103.18 17.0341 102.911 17.3129C102.643 17.5885 102.311 17.8039 101.916 17.9591C101.52 18.1111 101.076 18.1871 100.583 18.1871Z" fill="#808080"/>
<path d="M109.778 20.7719C109.589 20.7719 109.419 20.7561 109.271 20.7244C109.122 20.6959 109.02 20.6674 108.963 20.6389L109.247 19.6506C109.519 19.7203 109.759 19.7456 109.968 19.7266C110.177 19.7076 110.362 19.6142 110.523 19.4463C110.687 19.2816 110.837 19.0139 110.973 18.6433L111.182 18.0731L108.488 10.7368H109.702L111.713 16.5526H111.789L113.8 10.7368H115.014L111.922 19.0994C111.783 19.4764 111.61 19.7884 111.405 20.0355C111.199 20.2857 110.961 20.471 110.689 20.5914C110.42 20.7117 110.117 20.7719 109.778 20.7719Z" fill="#808080"/>
<path d="M120.399 18.0351V8.30409H123.68C124.439 8.30409 125.062 8.43397 125.549 8.69371C126.036 8.95029 126.396 9.30348 126.63 9.75329C126.864 10.2031 126.981 10.7147 126.981 11.288C126.981 11.8614 126.864 12.3698 126.63 12.8132C126.396 13.2567 126.037 13.6051 125.554 13.8586C125.07 14.1088 124.452 14.2339 123.699 14.2339H121.044V13.1696H123.661C124.18 13.1696 124.597 13.0936 124.913 12.9415C125.233 12.7895 125.463 12.5741 125.606 12.2953C125.751 12.0134 125.824 11.6776 125.824 11.288C125.824 10.8984 125.751 10.5579 125.606 10.2664C125.46 9.97502 125.228 9.75012 124.909 9.59174C124.589 9.43019 124.167 9.34941 123.642 9.34941H121.575V18.0351H120.399ZM124.97 13.6637L127.36 18.0351H125.995L123.642 13.6637H124.97Z" fill="#808080"/>
<path d="M131.765 18.1871C131.063 18.1871 130.457 18.0319 129.948 17.7215C129.443 17.4079 129.052 16.9708 128.777 16.4101C128.505 15.8462 128.369 15.1905 128.369 14.443C128.369 13.6954 128.505 13.0365 128.777 12.4664C129.052 11.893 129.435 11.4464 129.925 11.1265C130.418 10.8034 130.993 10.6418 131.651 10.6418C132.03 10.6418 132.405 10.7052 132.775 10.8319C133.145 10.9586 133.481 11.1645 133.785 11.4496C134.088 11.7315 134.33 12.1053 134.51 12.5709C134.691 13.0365 134.781 13.6099 134.781 14.2909V14.7661H129.166V13.7968H133.643C133.643 13.385 133.56 13.0175 133.396 12.6944C133.235 12.3713 133.004 12.1163 132.704 11.9295C132.406 11.7426 132.056 11.6491 131.651 11.6491C131.205 11.6491 130.819 11.76 130.494 11.9817C130.171 12.2003 129.923 12.4854 129.749 12.837C129.575 13.1886 129.488 13.5655 129.488 13.9678V14.614C129.488 15.1652 129.583 15.6324 129.773 16.0157C129.966 16.3958 130.233 16.6857 130.574 16.8852C130.916 17.0816 131.313 17.1798 131.765 17.1798C132.059 17.1798 132.324 17.1386 132.561 17.0563C132.802 16.9708 133.009 16.8441 133.183 16.6762C133.357 16.5051 133.491 16.2929 133.586 16.0395L134.667 16.3436C134.553 16.711 134.362 17.0341 134.093 17.3129C133.824 17.5885 133.492 17.8039 133.097 17.9591C132.702 18.1111 132.258 18.1871 131.765 18.1871Z" fill="#808080"/>
<path d="M139.442 18.1871C138.76 18.1871 138.172 18.0256 137.678 17.7025C137.185 17.3794 136.806 16.9343 136.54 16.3673C136.275 15.8003 136.142 15.1525 136.142 14.424C136.142 13.6827 136.278 13.0286 136.55 12.4616C136.825 11.8914 137.207 11.4464 137.697 11.1265C138.191 10.8034 138.766 10.6418 139.424 10.6418C139.936 10.6418 140.397 10.7368 140.808 10.9269C141.219 11.117 141.556 11.383 141.818 11.7251C142.081 12.0673 142.244 12.4664 142.307 12.9225H141.188C141.102 12.5899 140.913 12.2953 140.619 12.0387C140.328 11.779 139.936 11.6491 139.442 11.6491C139.006 11.6491 138.624 11.7632 138.295 11.9912C137.969 12.2161 137.715 12.5345 137.531 12.9463C137.351 13.3549 137.261 13.8348 137.261 14.386C137.261 14.9498 137.35 15.4408 137.527 15.8589C137.707 16.277 137.96 16.6017 138.285 16.833C138.614 17.0642 139 17.1798 139.442 17.1798C139.733 17.1798 139.997 17.1291 140.234 17.0278C140.472 16.9264 140.672 16.7807 140.837 16.5906C141.001 16.4006 141.118 16.1725 141.188 15.9064H142.307C142.244 16.3372 142.087 16.7253 141.837 17.0705C141.591 17.4126 141.264 17.6851 140.856 17.8878C140.451 18.0874 139.98 18.1871 139.442 18.1871Z" fill="#808080"/>
<path d="M146.902 18.1871C146.244 18.1871 145.668 18.0303 145.171 17.7167C144.678 17.4031 144.292 16.9644 144.014 16.4006C143.739 15.8367 143.601 15.1779 143.601 14.424C143.601 13.6637 143.739 13.0001 144.014 12.4331C144.292 11.8661 144.678 11.4258 145.171 11.1122C145.668 10.7986 146.244 10.6418 146.902 10.6418C147.56 10.6418 148.135 10.7986 148.628 11.1122C149.125 11.4258 149.51 11.8661 149.785 12.4331C150.064 13.0001 150.203 13.6637 150.203 14.424C150.203 15.1779 150.064 15.8367 149.785 16.4006C149.51 16.9644 149.125 17.4031 148.628 17.7167C148.135 18.0303 147.56 18.1871 146.902 18.1871ZM146.902 17.1798C147.402 17.1798 147.813 17.0515 148.135 16.795C148.458 16.5384 148.696 16.201 148.851 15.7829C149.006 15.3648 149.084 14.9118 149.084 14.424C149.084 13.9362 149.006 13.4816 148.851 13.0603C148.696 12.639 148.458 12.2985 148.135 12.0387C147.813 11.779 147.402 11.6491 146.902 11.6491C146.403 11.6491 145.992 11.779 145.669 12.0387C145.347 12.2985 145.108 12.639 144.953 13.0603C144.798 13.4816 144.721 13.9362 144.721 14.424C144.721 14.9118 144.798 15.3648 144.953 15.7829C145.108 16.201 145.347 16.5384 145.669 16.795C145.992 17.0515 146.403 17.1798 146.902 17.1798Z" fill="#808080"/>
<path d="M154.851 20.924C154.311 20.924 153.846 20.8543 153.457 20.7149C153.068 20.5787 152.744 20.3981 152.485 20.1732C152.229 19.9515 152.025 19.7139 151.873 19.4605L152.765 18.8333C152.866 18.9664 152.994 19.1184 153.149 19.2895C153.304 19.4637 153.516 19.6142 153.784 19.7409C154.056 19.8707 154.412 19.9357 154.851 19.9357C155.439 19.9357 155.925 19.7931 156.307 19.508C156.69 19.223 156.881 18.7763 156.881 18.1681V16.6857H156.786C156.704 16.8187 156.587 16.9834 156.435 17.1798C156.287 17.3731 156.072 17.5457 155.79 17.6977C155.512 17.8466 155.136 17.9211 154.662 17.9211C154.074 17.9211 153.546 17.7817 153.078 17.5029C152.613 17.2242 152.245 16.8187 151.973 16.2865C151.704 15.7544 151.57 15.1082 151.57 14.348C151.57 13.6004 151.701 12.9494 151.963 12.3951C152.226 11.8376 152.591 11.4068 153.059 11.1027C153.527 10.7954 154.067 10.6418 154.681 10.6418C155.155 10.6418 155.531 10.721 155.809 10.8794C156.091 11.0346 156.306 11.212 156.454 11.4115C156.606 11.6079 156.723 11.7695 156.805 11.8962H156.919V10.7368H158V18.2442C158 18.8713 157.858 19.3813 157.573 19.7741C157.292 20.1701 156.913 20.4599 156.435 20.6436C155.961 20.8305 155.433 20.924 154.851 20.924ZM154.813 16.9137C155.262 16.9137 155.642 16.8108 155.952 16.6049C156.261 16.399 156.497 16.1028 156.658 15.7164C156.819 15.3299 156.9 14.8674 156.9 14.3289C156.9 13.8031 156.821 13.3391 156.663 12.9368C156.505 12.5345 156.271 12.2193 155.961 11.9912C155.651 11.7632 155.269 11.6491 154.813 11.6491C154.339 11.6491 153.944 11.7695 153.628 12.0102C153.315 12.251 153.079 12.5741 152.921 12.9795C152.766 13.385 152.689 13.8348 152.689 14.3289C152.689 14.8358 152.768 15.284 152.926 15.6736C153.087 16.0601 153.324 16.3642 153.637 16.5859C153.953 16.8045 154.345 16.9137 154.813 16.9137Z" fill="#808080"/>
<path d="M160.049 18.0351V10.7368H161.168V18.0351H160.049ZM160.618 9.52047C160.4 9.52047 160.212 9.44603 160.054 9.29715C159.899 9.14827 159.821 8.9693 159.821 8.76023C159.821 8.55117 159.899 8.3722 160.054 8.22332C160.212 8.07444 160.4 8 160.618 8C160.836 8 161.023 8.07444 161.178 8.22332C161.336 8.3722 161.415 8.55117 161.415 8.76023C161.415 8.9693 161.336 9.14827 161.178 9.29715C161.023 9.44603 160.836 9.52047 160.618 9.52047Z" fill="#808080"/>
<path d="M165.968 18.1871C165.361 18.1871 164.826 18.0335 164.361 17.7262C163.896 17.4158 163.532 16.9787 163.27 16.4148C163.008 15.8478 162.876 15.1779 162.876 14.405C162.876 13.6384 163.008 12.9732 163.27 12.4094C163.532 11.8455 163.898 11.41 164.366 11.1027C164.833 10.7954 165.374 10.6418 165.987 10.6418C166.462 10.6418 166.836 10.721 167.111 10.8794C167.39 11.0346 167.601 11.212 167.747 11.4115C167.895 11.6079 168.011 11.7695 168.093 11.8962H168.188V8.30409H169.307V18.0351H168.226V16.9137H168.093C168.011 17.0468 167.894 17.2147 167.742 17.4174C167.59 17.617 167.374 17.7959 167.092 17.9543C166.811 18.1095 166.436 18.1871 165.968 18.1871ZM166.12 17.1798C166.569 17.1798 166.949 17.0626 167.258 16.8282C167.568 16.5906 167.804 16.2628 167.965 15.8447C168.126 15.4234 168.207 14.9371 168.207 14.386C168.207 13.8411 168.128 13.3644 167.97 12.9558C167.812 12.544 167.578 12.224 167.268 11.996C166.958 11.7647 166.575 11.6491 166.12 11.6491C165.646 11.6491 165.251 11.7711 164.935 12.015C164.622 12.2557 164.386 12.5836 164.228 12.9985C164.073 13.4103 163.996 13.8728 163.996 14.386C163.996 14.9055 164.075 15.3774 164.233 15.8019C164.394 16.2232 164.631 16.559 164.944 16.8092C165.26 17.0563 165.652 17.1798 166.12 17.1798Z" fill="#808080"/>
<path d="M173.656 18.2061C173.194 18.2061 172.775 18.119 172.399 17.9448C172.023 17.7674 171.724 17.5124 171.503 17.1798C171.281 16.8441 171.171 16.4386 171.171 15.9635C171.171 15.5453 171.253 15.2064 171.417 14.9466C171.582 14.6837 171.801 14.4778 172.076 14.3289C172.352 14.1801 172.655 14.0692 172.987 13.9963C173.322 13.9203 173.659 13.8601 173.997 13.8158C174.44 13.7588 174.799 13.716 175.074 13.6875C175.352 13.6558 175.554 13.6036 175.681 13.5307C175.81 13.4578 175.875 13.3311 175.875 13.1506V13.1126C175.875 12.6438 175.747 12.2795 175.491 12.0197C175.238 11.76 174.854 11.6301 174.339 11.6301C173.804 11.6301 173.385 11.7473 173.082 11.9817C172.778 12.2161 172.565 12.4664 172.442 12.7325L171.379 12.3523C171.569 11.9089 171.822 11.5636 172.138 11.3165C172.457 11.0663 172.805 10.8921 173.181 10.7939C173.561 10.6925 173.934 10.6418 174.301 10.6418C174.535 10.6418 174.803 10.6703 175.107 10.7273C175.413 10.7812 175.709 10.8936 175.994 11.0647C176.281 11.2357 176.52 11.4939 176.71 11.8392C176.899 12.1845 176.994 12.6469 176.994 13.2266V18.0351H175.875V17.0468H175.818C175.742 17.2052 175.616 17.3746 175.439 17.5552C175.262 17.7357 175.026 17.8894 174.732 18.0161C174.438 18.1428 174.079 18.2061 173.656 18.2061ZM173.826 17.1988C174.269 17.1988 174.642 17.1117 174.946 16.9375C175.252 16.7633 175.483 16.5384 175.638 16.2628C175.796 15.9872 175.875 15.6974 175.875 15.3933V14.367C175.828 14.424 175.723 14.4762 175.562 14.5238C175.404 14.5681 175.221 14.6077 175.012 14.6425C174.806 14.6742 174.606 14.7027 174.41 14.7281C174.217 14.7502 174.06 14.7692 173.94 14.7851C173.649 14.8231 173.377 14.8849 173.125 14.9704C172.875 15.0528 172.672 15.1779 172.518 15.3458C172.366 15.5105 172.29 15.7354 172.29 16.0205C172.29 16.4101 172.434 16.7047 172.721 16.9042C173.012 17.1006 173.381 17.1988 173.826 17.1988Z" fill="#808080"/>
<path d="M184.197 12.3713L183.191 12.6564C183.128 12.4885 183.035 12.3254 182.911 12.167C182.791 12.0055 182.627 11.8724 182.418 11.7679C182.21 11.6634 181.942 11.6111 181.617 11.6111C181.171 11.6111 180.8 11.7141 180.502 11.92C180.208 12.1227 180.061 12.3808 180.061 12.6944C180.061 12.9732 180.162 13.1933 180.365 13.3549C180.567 13.5164 180.883 13.6511 181.313 13.7588L182.395 14.0249C183.046 14.1832 183.531 14.4256 183.85 14.7518C184.17 15.0749 184.329 15.4915 184.329 16.0015C184.329 16.4196 184.209 16.7934 183.969 17.1228C183.732 17.4522 183.4 17.712 182.973 17.902C182.546 18.0921 182.05 18.1871 181.484 18.1871C180.741 18.1871 180.126 18.0256 179.639 17.7025C179.152 17.3794 178.844 16.9074 178.715 16.2865L179.777 16.0205C179.878 16.4133 180.069 16.7078 180.351 16.9042C180.635 17.1006 181.007 17.1988 181.465 17.1988C181.987 17.1988 182.401 17.088 182.708 16.8662C183.017 16.6413 183.172 16.3721 183.172 16.0585C183.172 15.8051 183.084 15.5928 182.907 15.4218C182.73 15.2476 182.458 15.1177 182.091 15.0322L180.877 14.7471C180.21 14.5887 179.72 14.3432 179.407 14.0106C179.097 13.6748 178.942 13.2551 178.942 12.7515C178.942 12.3397 179.058 11.9754 179.288 11.6586C179.522 11.3419 179.84 11.0932 180.242 10.9126C180.646 10.7321 181.105 10.6418 181.617 10.6418C182.338 10.6418 182.904 10.8002 183.315 11.117C183.729 11.4337 184.023 11.8519 184.197 12.3713Z" fill="#808080"/>
<path d="M52.092 34C51.485 34 50.9491 33.8464 50.4843 33.5391C50.0196 33.2287 49.656 32.7915 49.3936 32.2277C49.1312 31.6607 49 30.9907 49 30.2178C49 29.4513 49.1312 28.7861 49.3936 28.2222C49.656 27.6584 50.0212 27.2228 50.4891 26.9156C50.957 26.6083 51.4976 26.4547 52.1109 26.4547C52.5852 26.4547 52.9598 26.5339 53.2349 26.6923C53.5131 26.8475 53.7249 27.0249 53.8703 27.2244C54.0189 27.4208 54.1343 27.5824 54.2165 27.7091H54.3114V24.117H55.4305V33.848H54.3493V32.7266H54.2165C54.1343 32.8596 54.0173 33.0275 53.8656 33.2303C53.7138 33.4298 53.4973 33.6088 53.2159 33.7672C52.9345 33.9224 52.5599 34 52.092 34ZM52.2437 32.9927C52.6927 32.9927 53.072 32.8755 53.3819 32.6411C53.6917 32.4035 53.9272 32.0757 54.0885 31.6575C54.2497 31.2362 54.3303 30.75 54.3303 30.1988C54.3303 29.654 54.2513 29.1773 54.0932 28.7686C53.9351 28.3568 53.7012 28.0369 53.3914 27.8088C53.0815 27.5776 52.699 27.462 52.2437 27.462C51.7695 27.462 51.3743 27.5839 51.0582 27.8279C50.7452 28.0686 50.5096 28.3964 50.3516 28.8114C50.1966 29.2232 50.1192 29.6857 50.1192 30.1988C50.1192 30.7183 50.1982 31.1903 50.3563 31.6148C50.5175 32.0361 50.7546 32.3718 51.0676 32.6221C51.3838 32.8692 51.7758 32.9927 52.2437 32.9927Z" fill="#808080"/>
<path d="M60.6897 34C59.9879 34 59.3824 33.8448 58.8734 33.5344C58.3676 33.2208 57.9771 32.7836 57.7021 32.223C57.4302 31.6591 57.2943 31.0034 57.2943 30.2558C57.2943 29.5083 57.4302 28.8494 57.7021 28.2792C57.9771 27.7059 58.3597 27.2593 58.8497 26.9393C59.3429 26.6162 59.9183 26.4547 60.5759 26.4547C60.9553 26.4547 61.3299 26.518 61.6998 26.6447C62.0697 26.7714 62.4064 26.9773 62.7099 27.2624C63.0134 27.5443 63.2553 27.9181 63.4355 28.3838C63.6157 28.8494 63.7058 29.4228 63.7058 30.1038V30.5789H58.091V29.6096H62.5677C62.5677 29.1979 62.4855 28.8304 62.3211 28.5073C62.1598 28.1842 61.929 27.9292 61.6287 27.7423C61.3315 27.5554 60.9806 27.462 60.5759 27.462C60.1301 27.462 59.7444 27.5729 59.4188 27.7946C59.0963 28.0132 58.8481 28.2982 58.6743 28.6499C58.5004 29.0015 58.4134 29.3784 58.4134 29.7807V30.4269C58.4134 30.9781 58.5083 31.4453 58.698 31.8286C58.8908 32.2087 59.158 32.4985 59.4994 32.6981C59.8409 32.8945 60.2376 32.9927 60.6897 32.9927C60.9838 32.9927 61.2493 32.9515 61.4864 32.8692C61.7267 32.7836 61.9338 32.6569 62.1077 32.489C62.2816 32.318 62.4159 32.1058 62.5108 31.8523L63.592 32.1564C63.4782 32.5239 63.2869 32.847 63.0182 33.1257C62.7495 33.4013 62.4175 33.6167 62.0223 33.7719C61.6271 33.924 61.1829 34 60.6897 34Z" fill="#808080"/>
<path d="M69.3159 33.848V24.117H72.5976C73.3564 24.117 73.9792 24.2468 74.4661 24.5066C74.9529 24.7632 75.3134 25.1164 75.5473 25.5662C75.7813 26.016 75.8982 26.5275 75.8982 27.1009C75.8982 27.6742 75.7813 28.1826 75.5473 28.6261C75.3134 29.0696 74.9545 29.418 74.4708 29.6714C73.9871 29.9217 73.369 30.0468 72.6166 30.0468H69.9609V28.9825H72.5786C73.0971 28.9825 73.5144 28.9064 73.8306 28.7544C74.1499 28.6023 74.3807 28.3869 74.523 28.1082C74.6684 27.8263 74.7411 27.4905 74.7411 27.1009C74.7411 26.7113 74.6684 26.3707 74.523 26.0793C74.3775 25.7879 74.1452 25.563 73.8259 25.4046C73.5065 25.2431 73.0845 25.1623 72.5597 25.1623H70.492V33.848H69.3159ZM73.8875 29.4766L76.2776 33.848H74.9118L72.5597 29.4766H73.8875Z" fill="#808080"/>
<path d="M80.682 34C79.9802 34 79.3747 33.8448 78.8657 33.5344C78.3599 33.2208 77.9694 32.7836 77.6944 32.223C77.4225 31.6591 77.2865 31.0034 77.2865 30.2558C77.2865 29.5083 77.4225 28.8494 77.6944 28.2792C77.9694 27.7059 78.352 27.2593 78.842 26.9393C79.3352 26.6162 79.9106 26.4547 80.5682 26.4547C80.9476 26.4547 81.3222 26.518 81.6921 26.6447C82.062 26.7714 82.3987 26.9773 82.7022 27.2624C83.0057 27.5443 83.2476 27.9181 83.4278 28.3838C83.608 28.8494 83.6981 29.4228 83.6981 30.1038V30.5789H78.0832V29.6096H82.56C82.56 29.1979 82.4778 28.8304 82.3134 28.5073C82.1521 28.1842 81.9213 27.9292 81.621 27.7423C81.3238 27.5554 80.9729 27.462 80.5682 27.462C80.1224 27.462 79.7367 27.5729 79.4111 27.7946C79.0886 28.0132 78.8404 28.2982 78.6665 28.6499C78.4927 29.0015 78.4057 29.3784 78.4057 29.7807V30.4269C78.4057 30.9781 78.5006 31.4453 78.6903 31.8286C78.8831 32.2087 79.1503 32.4985 79.4917 32.6981C79.8331 32.8945 80.2299 32.9927 80.682 32.9927C80.976 32.9927 81.2416 32.9515 81.4787 32.8692C81.719 32.7836 81.9261 32.6569 82.1 32.489C82.2738 32.318 82.4082 32.1058 82.503 31.8523L83.5843 32.1564C83.4705 32.5239 83.2792 32.847 83.0105 33.1257C82.7417 33.4013 82.4098 33.6167 82.0146 33.7719C81.6194 33.924 81.1752 34 80.682 34Z" fill="#808080"/>
<path d="M90.5602 28.1842L89.5548 28.4693C89.4916 28.3014 89.3983 28.1383 89.275 27.9799C89.1549 27.8183 88.9905 27.6853 88.7818 27.5808C88.5732 27.4762 88.306 27.424 87.9804 27.424C87.5346 27.424 87.1631 27.5269 86.866 27.7328C86.5719 27.9356 86.4249 28.1937 86.4249 28.5073C86.4249 28.7861 86.5261 29.0062 86.7284 29.1678C86.9308 29.3293 87.2469 29.4639 87.6769 29.5716L88.7581 29.8377C89.4094 29.9961 89.8947 30.2384 90.214 30.5647C90.5333 30.8878 90.693 31.3043 90.693 31.8143C90.693 32.2325 90.5728 32.6062 90.3326 32.9357C90.0954 33.2651 89.7635 33.5249 89.3367 33.7149C88.9099 33.905 88.4135 34 87.8476 34C87.1046 34 86.4897 33.8385 86.0029 33.5154C85.516 33.1923 85.2077 32.7203 85.0781 32.0994L86.1404 31.8333C86.2416 32.2261 86.4328 32.5207 86.7142 32.7171C86.9987 32.9135 87.3702 33.0117 87.8286 33.0117C88.3503 33.0117 88.7644 32.9008 89.0711 32.6791C89.3809 32.4542 89.5359 32.1849 89.5359 31.8713C89.5359 31.6179 89.4473 31.4057 89.2703 31.2346C89.0932 31.0604 88.8214 30.9306 88.4546 30.845L87.2406 30.5599C86.5735 30.4016 86.0835 30.1561 85.7705 29.8235C85.4607 29.4877 85.3057 29.068 85.3057 28.5643C85.3057 28.1525 85.4211 27.7883 85.6519 27.4715C85.8859 27.1547 86.2036 26.9061 86.6051 26.7255C87.0098 26.545 87.4682 26.4547 87.9804 26.4547C88.7012 26.4547 89.2671 26.6131 89.6781 26.9298C90.0923 27.2466 90.3863 27.6647 90.5602 28.1842Z" fill="#808080"/>
<path d="M92.3777 33.848V26.5497H93.4968V33.848H92.3777ZM92.9467 25.3333C92.7286 25.3333 92.5405 25.2589 92.3824 25.11C92.2275 24.9611 92.15 24.7822 92.15 24.5731C92.15 24.364 92.2275 24.1851 92.3824 24.0362C92.5405 23.8873 92.7286 23.8129 92.9467 23.8129C93.1649 23.8129 93.3514 23.8873 93.5063 24.0362C93.6644 24.1851 93.7434 24.364 93.7434 24.5731C93.7434 24.7822 93.6644 24.9611 93.5063 25.11C93.3514 25.2589 93.1649 25.3333 92.9467 25.3333Z" fill="#808080"/>
<path d="M98.2972 34C97.6902 34 97.1543 33.8464 96.6896 33.5391C96.2248 33.2287 95.8613 32.7915 95.5989 32.2277C95.3365 31.6607 95.2053 30.9907 95.2053 30.2178C95.2053 29.4513 95.3365 28.7861 95.5989 28.2222C95.8613 27.6584 96.2264 27.2228 96.6943 26.9156C97.1622 26.6083 97.7029 26.4547 98.3162 26.4547C98.7904 26.4547 99.1651 26.5339 99.4401 26.6923C99.7183 26.8475 99.9302 27.0249 100.076 27.2244C100.224 27.4208 100.34 27.5824 100.422 27.7091H100.517V24.117H101.636V33.848H100.555V32.7266H100.422C100.34 32.8596 100.223 33.0275 100.071 33.2303C99.9191 33.4298 99.7025 33.6088 99.4211 33.7672C99.1398 33.9224 98.7651 34 98.2972 34ZM98.449 32.9927C98.8979 32.9927 99.2773 32.8755 99.5871 32.6411C99.897 32.4035 100.132 32.0757 100.294 31.6575C100.455 31.2362 100.536 30.75 100.536 30.1988C100.536 29.654 100.457 29.1773 100.298 28.7686C100.14 28.3568 99.9064 28.0369 99.5966 27.8088C99.2868 27.5776 98.9042 27.462 98.449 27.462C97.9748 27.462 97.5796 27.5839 97.2634 27.8279C96.9504 28.0686 96.7149 28.3964 96.5568 28.8114C96.4019 29.2232 96.3244 29.6857 96.3244 30.1988C96.3244 30.7183 96.4035 31.1903 96.5616 31.6148C96.7228 32.0361 96.9599 32.3718 97.2729 32.6221C97.589 32.8692 97.9811 32.9927 98.449 32.9927Z" fill="#808080"/>
<path d="M108.431 30.864V26.5497H109.551V33.848H108.431V32.6126H108.356C108.185 32.9832 107.919 33.2984 107.559 33.5581C107.198 33.8147 106.743 33.943 106.193 33.943C105.738 33.943 105.333 33.8432 104.979 33.6436C104.625 33.4409 104.347 33.1368 104.144 32.7314C103.942 32.3227 103.841 31.808 103.841 31.1871V26.5497H104.96V31.1111C104.96 31.6433 105.109 32.0677 105.406 32.3845C105.706 32.7013 106.089 32.8596 106.554 32.8596C106.832 32.8596 107.115 32.7884 107.402 32.6458C107.693 32.5033 107.937 32.2847 108.133 31.9901C108.332 31.6955 108.431 31.3202 108.431 30.864Z" fill="#808080"/>
<path d="M114.56 34C113.902 34 113.325 33.8432 112.829 33.5296C112.336 33.216 111.95 32.7773 111.672 32.2135C111.397 31.6496 111.259 30.9907 111.259 30.2368C111.259 29.4766 111.397 28.813 111.672 28.246C111.95 27.679 112.336 27.2387 112.829 26.9251C113.325 26.6115 113.902 26.4547 114.56 26.4547C115.217 26.4547 115.793 26.6115 116.286 26.9251C116.782 27.2387 117.168 27.679 117.443 28.246C117.721 28.813 117.86 29.4766 117.86 30.2368C117.86 30.9907 117.721 31.6496 117.443 32.2135C117.168 32.7773 116.782 33.216 116.286 33.5296C115.793 33.8432 115.217 34 114.56 34ZM114.56 32.9927C115.059 32.9927 115.47 32.8644 115.793 32.6078C116.115 32.3512 116.354 32.0139 116.509 31.5958C116.664 31.1776 116.741 30.7247 116.741 30.2368C116.741 29.749 116.664 29.2945 116.509 28.8732C116.354 28.4519 116.115 28.1114 115.793 27.8516C115.47 27.5919 115.059 27.462 114.56 27.462C114.06 27.462 113.649 27.5919 113.327 27.8516C113.004 28.1114 112.766 28.4519 112.611 28.8732C112.456 29.2945 112.378 29.749 112.378 30.2368C112.378 30.7247 112.456 31.1776 112.611 31.5958C112.766 32.0139 113.004 32.3512 113.327 32.6078C113.649 32.8644 114.06 32.9927 114.56 32.9927Z" fill="#808080"/>
<path d="M124.728 28.1842L123.723 28.4693C123.66 28.3014 123.566 28.1383 123.443 27.9799C123.323 27.8183 123.159 27.6853 122.95 27.5808C122.741 27.4762 122.474 27.424 122.149 27.424C121.703 27.424 121.331 27.5269 121.034 27.7328C120.74 27.9356 120.593 28.1937 120.593 28.5073C120.593 28.7861 120.694 29.0062 120.897 29.1678C121.099 29.3293 121.415 29.4639 121.845 29.5716L122.926 29.8377C123.578 29.9961 124.063 30.2384 124.382 30.5647C124.701 30.8878 124.861 31.3043 124.861 31.8143C124.861 32.2325 124.741 32.6062 124.501 32.9357C124.264 33.2651 123.932 33.5249 123.505 33.7149C123.078 33.905 122.582 34 122.016 34C121.273 34 120.658 33.8385 120.171 33.5154C119.684 33.1923 119.376 32.7203 119.246 32.0994L120.309 31.8333C120.41 32.2261 120.601 32.5207 120.882 32.7171C121.167 32.9135 121.538 33.0117 121.997 33.0117C122.518 33.0117 122.933 32.9008 123.239 32.6791C123.549 32.4542 123.704 32.1849 123.704 31.8713C123.704 31.6179 123.615 31.4057 123.438 31.2346C123.261 31.0604 122.99 30.9306 122.623 30.845L121.409 30.5599C120.742 30.4016 120.252 30.1561 119.939 29.8235C119.629 29.4877 119.474 29.068 119.474 28.5643C119.474 28.1525 119.589 27.7883 119.82 27.4715C120.054 27.1547 120.372 26.9061 120.773 26.7255C121.178 26.545 121.636 26.4547 122.149 26.4547C122.869 26.4547 123.435 26.6131 123.846 26.9298C124.26 27.2466 124.554 27.6647 124.728 28.1842Z" fill="#808080"/>
<path d="M133.052 34C132.445 34 131.909 33.8464 131.445 33.5391C130.98 33.2287 130.616 32.7915 130.354 32.2277C130.091 31.6607 129.96 30.9907 129.96 30.2178C129.96 29.4513 130.091 28.7861 130.354 28.2222C130.616 27.6584 130.981 27.2228 131.449 26.9156C131.917 26.6083 132.458 26.4547 133.071 26.4547C133.545 26.4547 133.92 26.5339 134.195 26.6923C134.473 26.8475 134.685 27.0249 134.831 27.2244C134.979 27.4208 135.095 27.5824 135.177 27.7091H135.272V24.117H136.391V33.848H135.31V32.7266H135.177C135.095 32.8596 134.978 33.0275 134.826 33.2303C134.674 33.4298 134.458 33.6088 134.176 33.7672C133.895 33.9224 133.52 34 133.052 34ZM133.204 32.9927C133.653 32.9927 134.032 32.8755 134.342 32.6411C134.652 32.4035 134.888 32.0757 135.049 31.6575C135.21 31.2362 135.291 30.75 135.291 30.1988C135.291 29.654 135.212 29.1773 135.053 28.7686C134.895 28.3568 134.661 28.0369 134.352 27.8088C134.042 27.5776 133.659 27.462 133.204 27.462C132.73 27.462 132.335 27.5839 132.018 27.8279C131.705 28.0686 131.47 28.3964 131.312 28.8114C131.157 29.2232 131.079 29.6857 131.079 30.1988C131.079 30.7183 131.158 31.1903 131.317 31.6148C131.478 32.0361 131.715 32.3718 132.028 32.6221C132.344 32.8692 132.736 32.9927 133.204 32.9927Z" fill="#808080"/>
<path d="M141.65 34C140.948 34 140.343 33.8448 139.834 33.5344C139.328 33.2208 138.937 32.7836 138.662 32.223C138.39 31.6591 138.255 31.0034 138.255 30.2558C138.255 29.5083 138.39 28.8494 138.662 28.2792C138.937 27.7059 139.32 27.2593 139.81 26.9393C140.303 26.6162 140.879 26.4547 141.536 26.4547C141.916 26.4547 142.29 26.518 142.66 26.6447C143.03 26.7714 143.367 26.9773 143.67 27.2624C143.974 27.5443 144.216 27.9181 144.396 28.3838C144.576 28.8494 144.666 29.4228 144.666 30.1038V30.5789H139.051V29.6096H143.528C143.528 29.1979 143.446 28.8304 143.281 28.5073C143.12 28.1842 142.889 27.9292 142.589 27.7423C142.292 27.5554 141.941 27.462 141.536 27.462C141.09 27.462 140.705 27.5729 140.379 27.7946C140.057 28.0132 139.808 28.2982 139.635 28.6499C139.461 29.0015 139.374 29.3784 139.374 29.7807V30.4269C139.374 30.9781 139.469 31.4453 139.658 31.8286C139.851 32.2087 140.118 32.4985 140.46 32.6981C140.801 32.8945 141.198 32.9927 141.65 32.9927C141.944 32.9927 142.21 32.9515 142.447 32.8692C142.687 32.7836 142.894 32.6569 143.068 32.489C143.242 32.318 143.376 32.1058 143.471 31.8523L144.552 32.1564C144.438 32.5239 144.247 32.847 143.978 33.1257C143.71 33.4013 143.378 33.6167 142.983 33.7719C142.587 33.924 142.143 34 141.65 34Z" fill="#808080"/>
<path d="M158.091 27.1579H156.915C156.846 26.819 156.724 26.5212 156.55 26.2646C156.38 26.008 156.171 25.7926 155.924 25.6184C155.681 25.441 155.411 25.308 155.113 25.2193C154.816 25.1306 154.506 25.0863 154.184 25.0863C153.596 25.0863 153.063 25.2351 152.586 25.5329C152.111 25.8307 151.734 26.2694 151.452 26.8491C151.174 27.4287 151.035 28.1399 151.035 28.9825C151.035 29.825 151.174 30.5362 151.452 31.1159C151.734 31.6955 152.111 32.1343 152.586 32.432C153.063 32.7298 153.596 32.8787 154.184 32.8787C154.506 32.8787 154.816 32.8343 155.113 32.7456C155.411 32.6569 155.681 32.5255 155.924 32.3512C156.171 32.1739 156.38 31.9569 156.55 31.7003C156.724 31.4405 156.846 31.1428 156.915 30.807H158.091C158.003 31.3043 157.842 31.7494 157.608 32.1422C157.374 32.535 157.083 32.8692 156.735 33.1447C156.387 33.4172 155.997 33.6246 155.564 33.7672C155.134 33.9097 154.674 33.981 154.184 33.981C153.356 33.981 152.619 33.7783 151.974 33.3728C151.329 32.9674 150.822 32.3908 150.452 31.6433C150.082 30.8957 149.897 30.0088 149.897 28.9825C149.897 27.9561 150.082 27.0692 150.452 26.3216C150.822 25.5741 151.329 24.9976 151.974 24.5921C152.619 24.1866 153.356 23.9839 154.184 23.9839C154.674 23.9839 155.134 24.0552 155.564 24.1977C155.997 24.3403 156.387 24.5493 156.735 24.8249C157.083 25.0973 157.374 25.4299 157.608 25.8227C157.842 26.2124 158.003 26.6574 158.091 27.1579Z" fill="#808080"/>
<path d="M162.799 34C162.142 34 161.565 33.8432 161.068 33.5296C160.575 33.216 160.19 32.7773 159.911 32.2135C159.636 31.6496 159.499 30.9907 159.499 30.2368C159.499 29.4766 159.636 28.813 159.911 28.246C160.19 27.679 160.575 27.2387 161.068 26.9251C161.565 26.6115 162.142 26.4547 162.799 26.4547C163.457 26.4547 164.032 26.6115 164.526 26.9251C165.022 27.2387 165.408 27.679 165.683 28.246C165.961 28.813 166.1 29.4766 166.1 30.2368C166.1 30.9907 165.961 31.6496 165.683 32.2135C165.408 32.7773 165.022 33.216 164.526 33.5296C164.032 33.8432 163.457 34 162.799 34ZM162.799 32.9927C163.299 32.9927 163.71 32.8644 164.032 32.6078C164.355 32.3512 164.594 32.0139 164.748 31.5958C164.903 31.1776 164.981 30.7247 164.981 30.2368C164.981 29.749 164.903 29.2945 164.748 28.8732C164.594 28.4519 164.355 28.1114 164.032 27.8516C163.71 27.5919 163.299 27.462 162.799 27.462C162.3 27.462 161.889 27.5919 161.566 27.8516C161.244 28.1114 161.005 28.4519 160.85 28.8732C160.695 29.2945 160.618 29.749 160.618 30.2368C160.618 30.7247 160.695 31.1776 160.85 31.5958C161.005 32.0139 161.244 32.3512 161.566 32.6078C161.889 32.8644 162.3 32.9927 162.799 32.9927Z" fill="#808080"/>
<path d="M168.928 29.4576V33.848H167.808V26.5497H168.89V27.6901H168.985C169.155 27.3194 169.414 27.0217 169.762 26.7968C170.11 26.5687 170.559 26.4547 171.109 26.4547C171.602 26.4547 172.034 26.556 172.404 26.7588C172.774 26.9583 173.061 27.2624 173.267 27.6711C173.472 28.0765 173.575 28.5897 173.575 29.2105V33.848H172.456V29.2866C172.456 28.7132 172.307 28.2666 172.01 27.9466C171.713 27.6235 171.305 27.462 170.787 27.462C170.429 27.462 170.11 27.5396 169.829 27.6948C169.55 27.85 169.331 28.0765 169.169 28.3743C169.008 28.672 168.928 29.0331 168.928 29.4576Z" fill="#808080"/>
<path d="M180.78 28.1842L179.774 28.4693C179.711 28.3014 179.618 28.1383 179.495 27.9799C179.374 27.8183 179.21 27.6853 179.001 27.5808C178.793 27.4762 178.526 27.424 178.2 27.424C177.754 27.424 177.383 27.5269 177.086 27.7328C176.792 27.9356 176.645 28.1937 176.645 28.5073C176.645 28.7861 176.746 29.0062 176.948 29.1678C177.15 29.3293 177.466 29.4639 177.896 29.5716L178.978 29.8377C179.629 29.9961 180.114 30.2384 180.434 30.5647C180.753 30.8878 180.913 31.3043 180.913 31.8143C180.913 32.2325 180.792 32.6062 180.552 32.9357C180.315 33.2651 179.983 33.5249 179.556 33.7149C179.129 33.905 178.633 34 178.067 34C177.324 34 176.709 33.8385 176.222 33.5154C175.736 33.1923 175.427 32.7203 175.298 32.0994L176.36 31.8333C176.461 32.2261 176.652 32.5207 176.934 32.7171C177.218 32.9135 177.59 33.0117 178.048 33.0117C178.57 33.0117 178.984 32.9008 179.291 32.6791C179.601 32.4542 179.755 32.1849 179.755 31.8713C179.755 31.6179 179.667 31.4057 179.49 31.2346C179.313 31.0604 179.041 30.9306 178.674 30.845L177.46 30.5599C176.793 30.4016 176.303 30.1561 175.99 29.8235C175.68 29.4877 175.525 29.068 175.525 28.5643C175.525 28.1525 175.641 27.7883 175.872 27.4715C176.105 27.1547 176.423 26.9061 176.825 26.7255C177.229 26.545 177.688 26.4547 178.2 26.4547C178.921 26.4547 179.487 26.6131 179.898 26.9298C180.312 27.2466 180.606 27.6647 180.78 28.1842Z" fill="#808080"/>
<path d="M185.765 26.5497V27.5H181.99V26.5497H185.765ZM183.09 24.8012H184.21V31.7573C184.21 32.0741 184.255 32.3116 184.347 32.47C184.442 32.6252 184.562 32.7298 184.708 32.7836C184.856 32.8343 185.013 32.8596 185.177 32.8596C185.3 32.8596 185.402 32.8533 185.481 32.8406C185.56 32.8248 185.623 32.8121 185.67 32.8026L185.898 33.8099C185.822 33.8385 185.716 33.867 185.58 33.8955C185.444 33.9271 185.272 33.943 185.063 33.943C184.747 33.943 184.437 33.8749 184.134 33.7387C183.833 33.6025 183.584 33.395 183.384 33.1162C183.188 32.8375 183.09 32.4859 183.09 32.0614V24.8012Z" fill="#808080"/>
<path d="M187.449 33.848V26.5497H188.53V27.652H188.606C188.739 27.2909 188.979 26.9979 189.327 26.773C189.674 26.5481 190.066 26.4357 190.503 26.4357C190.585 26.4357 190.688 26.4373 190.811 26.4404C190.934 26.4436 191.027 26.4483 191.091 26.4547V27.595C191.053 27.5855 190.966 27.5713 190.83 27.5523C190.697 27.5301 190.556 27.519 190.408 27.519C190.054 27.519 189.738 27.5934 189.459 27.7423C189.184 27.888 188.966 28.0908 188.805 28.3505C188.647 28.6071 188.568 28.9001 188.568 29.2295V33.848H187.449Z" fill="#808080"/>
<path d="M197.008 30.864V26.5497H198.127V33.848H197.008V32.6126H196.932C196.761 32.9832 196.496 33.2984 196.135 33.5581C195.775 33.8147 195.32 33.943 194.77 33.943C194.314 33.943 193.91 33.8432 193.555 33.6436C193.201 33.4409 192.923 33.1368 192.721 32.7314C192.519 32.3227 192.417 31.808 192.417 31.1871V26.5497H193.537V31.1111C193.537 31.6433 193.685 32.0677 193.982 32.3845C194.283 32.7013 194.665 32.8596 195.13 32.8596C195.408 32.8596 195.691 32.7884 195.979 32.6458C196.27 32.5033 196.513 32.2847 196.709 31.9901C196.908 31.6955 197.008 31.3202 197.008 30.864Z" fill="#808080"/>
<path d="M203.136 34C202.453 34 201.865 33.8385 201.372 33.5154C200.879 33.1923 200.499 32.7472 200.234 32.1802C199.968 31.6132 199.835 30.9654 199.835 30.2368C199.835 29.4956 199.971 28.8415 200.243 28.2745C200.518 27.7043 200.901 27.2593 201.391 26.9393C201.884 26.6162 202.46 26.4547 203.117 26.4547C203.629 26.4547 204.091 26.5497 204.502 26.7398C204.913 26.9298 205.25 27.1959 205.512 27.538C205.774 27.8801 205.937 28.2792 206 28.7354H204.881C204.796 28.4028 204.606 28.1082 204.312 27.8516C204.021 27.5919 203.629 27.462 203.136 27.462C202.7 27.462 202.317 27.576 201.988 27.8041C201.663 28.029 201.408 28.3473 201.225 28.7591C201.045 29.1678 200.955 29.6477 200.955 30.1988C200.955 30.7627 201.043 31.2537 201.22 31.6718C201.4 32.0899 201.653 32.4146 201.979 32.6458C202.308 32.8771 202.693 32.9927 203.136 32.9927C203.427 32.9927 203.691 32.942 203.928 32.8406C204.165 32.7393 204.366 32.5936 204.53 32.4035C204.695 32.2134 204.812 31.9854 204.881 31.7193H206C205.937 32.1501 205.781 32.5381 205.531 32.8834C205.284 33.2255 204.957 33.4979 204.549 33.7007C204.145 33.9002 203.674 34 203.136 34Z" fill="#808080"/>
<path d="M210.596 34C209.913 34 209.325 33.8385 208.832 33.5154C208.338 33.1923 207.959 32.7472 207.693 32.1802C207.428 31.6132 207.295 30.9654 207.295 30.2368C207.295 29.4956 207.431 28.8415 207.703 28.2745C207.978 27.7043 208.36 27.2593 208.851 26.9393C209.344 26.6162 209.919 26.4547 210.577 26.4547C211.089 26.4547 211.55 26.5497 211.961 26.7398C212.372 26.9298 212.709 27.1959 212.972 27.538C213.234 27.8801 213.397 28.2792 213.46 28.7354H212.341C212.255 28.4028 212.066 28.1082 211.772 27.8516C211.481 27.5919 211.089 27.462 210.596 27.462C210.159 27.462 209.777 27.576 209.448 27.8041C209.122 28.029 208.868 28.3473 208.685 28.7591C208.504 29.1678 208.414 29.6477 208.414 30.1988C208.414 30.7627 208.503 31.2537 208.68 31.6718C208.86 32.0899 209.113 32.4146 209.439 32.6458C209.767 32.8771 210.153 32.9927 210.596 32.9927C210.887 32.9927 211.151 32.942 211.388 32.8406C211.625 32.7393 211.826 32.5936 211.99 32.4035C212.154 32.2134 212.271 31.9854 212.341 31.7193H213.46C213.397 32.1501 213.24 32.5381 212.991 32.8834C212.744 33.2255 212.417 33.4979 212.009 33.7007C211.604 33.9002 211.133 34 210.596 34Z" fill="#808080"/>
<path d="M215.096 33.848V26.5497H216.215V33.848H215.096ZM215.665 25.3333C215.447 25.3333 215.259 25.2589 215.101 25.11C214.946 24.9611 214.868 24.7822 214.868 24.5731C214.868 24.364 214.946 24.1851 215.101 24.0362C215.259 23.8873 215.447 23.8129 215.665 23.8129C215.883 23.8129 216.07 23.8873 216.225 24.0362C216.383 24.1851 216.462 24.364 216.462 24.5731C216.462 24.7822 216.383 24.9611 216.225 25.11C216.07 25.2589 215.883 25.3333 215.665 25.3333Z" fill="#808080"/>
<path d="M221.224 34C220.567 34 219.99 33.8432 219.493 33.5296C219 33.216 218.615 32.7773 218.336 32.2135C218.061 31.6496 217.924 30.9907 217.924 30.2368C217.924 29.4766 218.061 28.813 218.336 28.246C218.615 27.679 219 27.2387 219.493 26.9251C219.99 26.6115 220.567 26.4547 221.224 26.4547C221.882 26.4547 222.457 26.6115 222.951 26.9251C223.447 27.2387 223.833 27.679 224.108 28.246C224.386 28.813 224.525 29.4766 224.525 30.2368C224.525 30.9907 224.386 31.6496 224.108 32.2135C223.833 32.7773 223.447 33.216 222.951 33.5296C222.457 33.8432 221.882 34 221.224 34ZM221.224 32.9927C221.724 32.9927 222.135 32.8644 222.457 32.6078C222.78 32.3512 223.018 32.0139 223.173 31.5958C223.328 31.1776 223.406 30.7247 223.406 30.2368C223.406 29.749 223.328 29.2945 223.173 28.8732C223.018 28.4519 222.78 28.1114 222.457 27.8516C222.135 27.5919 221.724 27.462 221.224 27.462C220.725 27.462 220.314 27.5919 219.991 27.8516C219.669 28.1114 219.43 28.4519 219.275 28.8732C219.12 29.2945 219.043 29.749 219.043 30.2368C219.043 30.7247 219.12 31.1776 219.275 31.5958C219.43 32.0139 219.669 32.3512 219.991 32.6078C220.314 32.8644 220.725 32.9927 221.224 32.9927Z" fill="#808080"/>
<path d="M227.353 29.4576V33.848H226.233V26.5497H227.315V27.6901H227.409C227.58 27.3194 227.839 27.0217 228.187 26.7968C228.535 26.5687 228.984 26.4547 229.534 26.4547C230.027 26.4547 230.459 26.556 230.829 26.7588C231.199 26.9583 231.486 27.2624 231.692 27.6711C231.897 28.0765 232 28.5897 232 29.2105V33.848H230.881V29.2866C230.881 28.7132 230.732 28.2666 230.435 27.9466C230.138 27.6235 229.73 27.462 229.212 27.462C228.854 27.462 228.535 27.5396 228.254 27.6948C227.975 27.85 227.756 28.0765 227.594 28.3743C227.433 28.672 227.353 29.0331 227.353 29.4576Z" fill="#808080"/>
<path d="M-1.95968e-07 29.4832C-1.60782e-07 28.6783 0.193454 27.9329 0.580365 27.2472C0.967277 26.5615 1.48545 26.0137 2.13491 25.6037C2.79128 25.2012 3.50635 25 4.28018 25L14.864 25C14.9193 25 14.9754 25.0745 14.9754 25.1342L14.9754 27.7056C14.9754 27.7652 15.0307 27.7 14.9754 27.7L4.28018 27.795C3.80345 27.795 3.39582 27.959 3.05727 28.287C2.72563 28.6149 2.55982 29.0137 2.55982 29.4832C2.55982 29.9752 2.72563 30.3851 3.05727 30.713C3.39582 31.041 3.80345 31.205 4.28018 31.205L14.8925 31.3C14.9478 31.3 14.9754 31.3 14.9754 31.3L14.9754 33.8658C14.9754 33.9255 15.0307 34 14.9754 34L4.28018 34C3.49944 34 2.78091 33.7988 2.12454 33.3963C1.47508 32.9863 0.956913 32.4422 0.570001 31.764C0.189998 31.0857 -2.32784e-07 30.3255 -1.95968e-07 29.4832Z" fill="#7F9D01"/>
<path fill-rule="evenodd" clip-rule="evenodd" d="M44 28H14V25H44V28Z" fill="#7F9D01"/>
<path fill-rule="evenodd" clip-rule="evenodd" d="M44 34H14V31H44V34Z" fill="#7F9D01"/>
</svg>
